<svg id="Layer_1" data-name="Layer 1" xmlns="http://www.w3.org/2000/svg" viewBox="0 0 720 720"><defs><style>.cls-1{fill:#fff;}</style></defs><path d="M325.64,607.67a8.4,8.4,0,0,0,.66-.84,7.71,7.71,0,0,0-1.63.48A5.07,5.07,0,0,0,325.64,607.67Z"/><path d="M326.47,606.9c.18,0,.31-.14.32-.26C326.61,606.68,326.48,606.79,326.47,606.9Z"/><path d="M327,606.72c.18,0,.31-.14.32-.26C327.1,606.5,327,606.6,327,606.72Z"/><path d="M327.45,606.54c.18,0,.31-.15.32-.27C327.59,606.31,327.46,606.42,327.45,606.54Z"/><path d="M327.94,606.35a.39.39,0,0,0,.23-.26C328.1,606.18,328,606.25,327.94,606.35Z"/><path class="cls-1" d="M529.54,184.75a2.3,2.3,0,0,0-1.63-.72,1.72,1.72,0,0,0-.93,1.36c.43,5.56-.5,11.47,4.2,16.32,1,1.85,1.07,4.7,4.14,3.28,3.92-1.79,4.92-4.49,2.63-8.2C535.46,192.66,532.47,188.74,529.54,184.75Zm4.28,16.1c-.57-.5-1.35-.85-1.64-1.49a40.54,40.54,0,0,1-1.64-4.92c-.07-.14.36-.43.57-.57l2.57,4.27A7.4,7.4,0,0,1,533.82,200.85Z"/><path class="cls-1" d="M369.54,274.12c1.86-1.14,4.78-.86,7.13-.64a18.3,18.3,0,0,0,10.83-1.86c6-3.2,7.34-8.76,7.56-15,.28-6.56.28-13.12.78-19.67a64.58,64.58,0,0,1,2.21-12.62c1.07-3.63.29-8.05,4.35-10.62,1.14-.71,1.71-2.63,1.85-4.13.64-5.13.93-10.26,1.57-15.4.14-1.14.93-2.77,1.78-3.13,4.06-1.43,6.49-4.71,9.2-7.84a39.55,39.55,0,0,0,9.83-23.73c.29-3.5,2.78-7,4.92-10,.57-.86,3.51-.19,5.34.07a9.32,9.32,0,0,0,2.13-.38c5-2.71,9.28-3.75,14.34-6.32,3.42-1.71,6.13-4.2,10.47-4.06a37.25,37.25,0,0,1,19.89,6.91c6.84,4.7,12,11.62,18.1,17.53A11.82,11.82,0,0,0,505.6,166c4.27,1.64,8.19,1,11.54-2.56.5-.57,1.64-.5,2.36-1,1.06-.64,2.42-1.28,2.85-2.28a12.55,12.55,0,0,0-.65-11.69c-3.42-5.63-6-11.9-11.68-16.11-4.64-3.42-8.27-7.84-13.76-9.55-6.48-2-12.76-4-19.81-2.56-4.14.85-8.55.35-12.76-.08-6.06-.57-12-1.85-18.1-2.56-5.7-.71-10.91,1.5-16,3.63-7.69,3.28-14.32,8.13-18.17,16-1.92,4-3.49,8.34-5.84,12.11-3.43,5.42-7.63,10.41-11.19,15.68-3.5,5.06-6.49,10.34-5.14,17a4,4,0,0,1-1.92,3.2c-4.56,2-6.56,5.85-7.13,10.27-.71,5.2-.5,10.54-.85,15.82-.43,6.7-1.28,13-5.56,18.74-3.71,4.92-7.27,10.12-7.41,17,0,2.57-1.86,4.42-5.28,4a7,7,0,0,0-4.49,1.78c-3.63,2.71-3.2,6.91-3.7,10.9C351.94,270.77,362.7,278.25,369.54,274.12ZM401,163.72c4.42-5.42,7.7-11.69,11.48-17.6,5.27-6.42,9.55-13.19,15.18-18.39,4.56-4.13,10.76-5.35,17.53-4.06,9,1.71,18.32,2.92,27.51,1.07a6.68,6.68,0,0,1,2.14,0c.93,0,1.85.14,2.78.21-.5.57-1.28,1.07-1.5,1.78-.5,1.43-1.35,3.49-.78,4.21,1.28,1.64,3.35,2.56,5.13,3.77a7.06,7.06,0,0,0,.78-1.92c.22-2.42.29-4.92.43-7.34,2.64.93,5.56,1.35,7.7,2.85,8,5.63,15.47,11.76,20.74,20.38,2.21,3.5,3.85,6.35,2.56,10.55-1.06,3.56-3.13,4.56-5.84,2-4.77-4.49-9.19-9.48-14.11-13.9-3.14-2.78-6-6.13-10.55-7.2a57.71,57.71,0,0,1-10.4-4.06c-9.27-4.21-17-.86-24.59,4.42a28,28,0,0,1-8.27,4c-2.71.78-5.49.57-7.55-2.21-1.79-2.42-2-4.92-.57-7.27s-.15-1.93-1.22-1.71c-2.13.57-4.27,1.42-3.84,4.27.21,1.93.07,4.21,1.14,5.56,1.78,2.28.92,4.07-.57,5.42-6.49,5.77-8.41,13.61-10.77,21.6a32.52,32.52,0,0,1-11.4,16.24c-2.85,2.21-9.62-1.85-9.83-5.41C394,174.13,396.91,168.92,401,163.72Zm-28.72,87.45c.36-2.92.5-5.92,1.5-8.62a76.06,76.06,0,0,1,4.49-9.48c2.21-4.21,5.49-8.13,6.56-12.55,1.42-5.91,1.07-12.26,1.71-18.38a54.3,54.3,0,0,1,2.21-11.27c1-3,5.84-2.13,6.84.65s.43,8.22.92,10.83c2.43,6.2-2.06,10.76-3.63,16.11-1.14,7.19-2.64,13.68-3.49,20.17-1,7.76-1.14,15.6-2.35,23.3-.72,4.63-3.71,6.7-7.2,6.77-3.21,0-4.07-1.07-3.21-4.06,1.28-4.21,1.14-8.48-3.56-10.55C372.54,253.81,372.25,252.1,372.32,251.17Zm-14.54,7.55c.72-2.35,2.14-4.49,5.49-4.34,4.21.14,6.27,2.49,7.56,6.13,2,5.56-.5,10.62-5.21,11.61-2,.43-7.91-3.06-8.19-5.34A20.44,20.44,0,0,1,357.78,258.72Z"/><path class="cls-1" d="M493.48,581.51c-2.21,3.28-2.71,7.62-6.27,10.19-3.28,2.42-6.34,5.2-9.76,7.48-3.78,2.64-7.27,2.21-10.55-1.07a60.62,60.62,0,0,1-5.49-6.13c-3-4.42-5.91-8.91-8.55-13.54s-5.49-9.05-6.56-14.39a85.4,85.4,0,0,0-3-10.12c-1-2.93-2.85-5.71-3.21-8.63-.78-7.48-5.63-12.4-10.12-17.6-1.28-1.43-2.42-3-3.71-4.42-1.85-2-3.49-4.78-5.77-5.77-10.62-4.49-15.39-14.4-21.81-22.74-2.35-3-5.13-5.2-8.55-5-3.85.29-7.77,1.64-10.12,5.28-3.21,5.06-3.49,10.47-2,16,1.57,5.92,2.64,12,5.14,17.46,2,4.21,2.13,7.49.35,11.69-1.92,4.56-3.21,9.27,3.14,12.54,2.35,1.22,4.92,2,7.27,3.14a14.2,14.2,0,0,0,13.33-.36,3.06,3.06,0,0,1,2.35.29,52,52,0,0,1,7.12,5.13,7.05,7.05,0,0,1,1.86,3.78c1.07,6.48,1.71,13,2.92,19.46,1.35,6.62,4.85,11.83,11.54,14.32a7.9,7.9,0,0,1,3.14,1.71,53.11,53.11,0,0,0,16.61,11.69c8.69,4,17.74,5.49,26.94,3.49,10.33-2.35,20.09-6.34,26.44-15.68a78.56,78.56,0,0,0,5.7-9.76c.78-1.57.21-3.78,1-5.28,1.21-2.28.21-3.84-1.14-5.13A12.22,12.22,0,0,0,493.48,581.51Zm-83.81-36.28c-.64,4.63-3.71,6.7-7.06,8.41-1.78.93-7.77-1.5-8.12-3.14-.07-.42,1.14-1.49,1.92-1.71,5.49-1.28,5.49-1.21,5.85-6.77a21.72,21.72,0,0,1,.71-4.34c.5-2.57-.93-2.64-2.78-2.5-4.21.5-5.84,3.56-7.27,6.91-.29.79-.71,1.57-1.07,2.36a10.4,10.4,0,0,1-1-2.71c-.21-4.06,3.07-8.7,6.92-10,4.34-1.57,7.84-1.07,10.05,2.49A13.93,13.93,0,0,1,409.67,545.23Zm-15.11,1.21a1.09,1.09,0,0,1,.14-.5c1.07-2.28,2.14-4.56,3.21-6.77,1.42,2.78,1.57,5.63-2.14,7.13A8,8,0,0,1,394.56,546.44Zm112.61,41c-.22.43-.22,1-.57,1.21-8.41,6.42-14.54,15.68-24.73,20.1-9.2,3.92-17.61,2.85-26.16-1.78A58.43,58.43,0,0,1,443,598c-1.92-1.78-5.56-1.5-7.91-3s-5-3.85-6-6.42c-1.92-5.06-4.49-10.12-4.06-15.82a9.58,9.58,0,0,1,.07-1.42c.5-1.29,1.07-2.64,1.64-3.92.64,1.21,1.21,2.42,1.93,3.63s1.78,3.35,2.21,3.21c2.06-.64,1.63-2.57,1.28-4.28-1-5.13-3-9.41-8.06-11.9a119.63,119.63,0,0,1-11.18-6.56c-.5-.28-.65-1.78-.43-2.56.71-3.07,2.28-6.13,2.49-9.27a15.6,15.6,0,0,0-5.56-13.25c-3.42-2.86-7.27-4.49-11.9-2.64-.57.28-1.28.35-1.85.57-5.13,1.78-6.2,1.57-8.34-3.78-1.85-4.63-4.21-9.26-3.64-14.54.22-1.49.5-2.92.72-4.35,1.28-7,4.13-5.63,7.84-2.28,2.85,2.57,4.77,6.06,7.12,9.13,3.64,6.05,9.2,8.9,14.19,12.61s9.83,8.62,12.68,14c5.35,10.41,9.13,21.6,13.83,32.36,1.71,3.92,4.35,7.48,6.34,11.26,2.5,4.7,4.71,9.48,7.2,14.18,4,7.56,10.19,12.54,18.67,14.11,2.07.36,4.49-.57,6.49-1.35,8.41-3.49,14.89-8.91,17.89-17.82a42.57,42.57,0,0,1,1.85-5.27c1.21-2.28,5.56-3.5,7.63-2.28C508.38,581.58,508.73,584.43,507.17,587.42Z"/><path class="cls-1" d="M367.43,331.44h0a31.65,31.65,0,0,1,.68,8.12,55.27,55.27,0,0,1-6.8,21.88c-3.22,5.64-5.74,10.15-7,16.79a13.54,13.54,0,0,0,1.37,7.72c2.31,3.55,5.41,6.57,8.32,9.6,2.43,2.48,6.68,2.88,6.62,8.12-.08,4.23.19,12.69.19,12.69l2.58-.77c2-.59,7.58-1.5,7.58-1.5s-.16-1.33-.2-1.54c-1.51-8.33-1.76-15.2-3.87-19.83-.66-1.46-2.65-6.33-3.05-7.46a37.2,37.2,0,0,0-1.55-3.89,50.94,50.94,0,0,0-3.14-5.83c-2-3.36-1.58-5,1.4-8.39.61-.67,2-.54,3-.74a20.41,20.41,0,0,1,0,3.83c-.18,1.2-1.16,2.35-1.16,3.42,0,1.41,1.73,2.75,2.16,4.16.79-.87.76-1.68,1.31-2.68,1.94-3.63,4.25-7.32,3.64-11.68a77.19,77.19,0,0,0-2.91-11.08c-2.05-7-5.82-13.76-4.42-21.43h0v0l-4.83.48Z"/><path class="cls-1" d="M367.22,582.84c2.7-5.23,2.94-11.54-3.09-16.15a5.14,5.14,0,0,1-1.71-1.56c-.76-1.71-1.75-2.24-3.56-1.33-2.56,1.33-5.27,2.51-7.83,3.84a5.44,5.44,0,0,0-2,2c-1.81,3.13-1,6.55-.67,9.87a10.39,10.39,0,0,0,1.28,3.23c1.38,2.61,3.94,3.32,6.51,4.23C360.62,588.58,365,587.11,367.22,582.84Zm-3-5.75c-1.24,2-2.18,4.13-3.37,6.17a3.47,3.47,0,0,1-1.62,1.38c-2.7,1-7.45-1.95-7.83-4.8a13.21,13.21,0,0,1-.14-5.12c1-4.13,6.22-6.37,10.3-4.7C364.27,571.39,366,574,364.18,577.09Z"/><path class="cls-1" d="M661,255.11c-.43-6-5-11.91-10.69-13-1.14-.22-2.43.07-3.42-.29a6,6,0,0,0-7.84,2.92c-2.85,5.56-5,11.48-3.07,18.11s3.71,8.83,9.27,9.19c1.14-.29,1.85-.57,2.56-.71C656.9,269.65,661.82,264.59,661,255.11Zm-7.91,7.05c-2.28,3.85-9.27,6.13-11.26,2.43a27.24,27.24,0,0,1-1.57-4.28v-1.43c.43-1.49.85-3,1.28-4.49,2.14.65,1.5,2.43,1.64,3.92a2.33,2.33,0,0,0,.71,1.43c.93,1.07,2,2.07,3,3.06.14-1.35.42-2.7.5-4.06.21-3.21.21-6.27-4-6.77.15-1.07,0-2.35.58-3.06,1.14-1.43,2.35-3.64,4.84-2.21C653.7,249.55,656,257.6,653.13,262.16Z"/><path class="cls-1" d="M379.33,610.5a6.51,6.51,0,0,0-2.33-.41,46,46,0,0,1-5.7,1.14,4.35,4.35,0,0,0-3.94,2.8c-.85,2.14-2.14,4.08-2.18,6.13-.15,8.4,7.5,12.48,14.67,10.68,1.75-.43,4.46-1.66,4.7-3a35.94,35.94,0,0,0,.38-11.06C384.45,613.27,382.52,613,379.33,610.5Zm2.32,13c-.28,2.61-2,3.6-5.84,3.94a6.66,6.66,0,0,1-6.55-3.85c-1.33-2.56,0-5.22,1.38-7.64,1.18-2.23,3.23-3.66,5.41-3.09,2.47.62,5.22,1.85,5.17,5.32A18.7,18.7,0,0,1,381.65,623.53Z"/><path class="cls-1" d="M211.44,328.26c3.24,3.46,7.08,4.3,11.8,2.53,3-1.14,5.56-5.1,5-7.29-.8-3.28-2.15-6.27-5.35-8.21-3.62-1.6-7.12-2.11-10.32.55C209.12,318.66,208.11,324.72,211.44,328.26Zm1.35-8.09a5.45,5.45,0,0,1,8.34-2.48c.25.17.55.29.84.46.38.47.46.8.68,1.06,3.62,4.08-.05,8.88-3.92,9.47-1.6.26-3.88-1.05-5.18-2.31C212,324.77,211.9,322.41,212.79,320.17Z"/><path class="cls-1" d="M487.21,161.87c-1.78-1.43-4.85-2.5-6.84-2.07-4,1-7.7,3.14-11.69,5a46.29,46.29,0,0,0-3,4.7,13,13,0,0,0,6.2,17.89c5,2.21,10.05,2.71,17-4.2C494.91,177.26,493.7,167.07,487.21,161.87ZM485,177c-2,3.63-8.41,6.91-11.62,5.34-1.56-.78-2.56-2.71-3.84-4.13a21.7,21.7,0,0,1-.36-4.63,7,7,0,0,1,4.77-6.77c3.42-1.14,7-2.5,10.2.92C486.78,170.63,487.14,173.06,485,177Z"/><path class="cls-1" d="M327.42,213.75c1.71.07,3.35.07,5.06,0,7.2-.14,14-7.84,13.4-14.89-.14-1.71-.57-3.35-.64-5.06A7.83,7.83,0,0,0,341,187c-6-3.57-11.9-2.64-18,.21-3.49,3.14-5.84,6.34-6.84,11C314.38,205.84,319.65,213.61,327.42,213.75ZM323,194.44c2-4.71,6.7-6.42,11.26-4.78,3.07,1.14,3.78,3.92,4.49,6.63.57,2.14,1.5,4.35,1.29,6.49-.22,1.78-1.5,4.27-2.92,4.91a24.61,24.61,0,0,1-10,2.36c-3.71,0-4.85-3.42-5.49-6.56C322.08,199.93,321.93,196.93,323,194.44Z"/><path class="cls-1" d="M198.68,290.56c-.51,0-1.27.21-1.39.55-1.1,2.82-2.53,5.64-3,8.63s1.82,4.76,4.39,6.07,6.86,1.14,8.55-1.35c1.51-2.4,2.74-4.51,2.61-7.37-.25-4.59-2-6.53-6.53-6.53C201.75,290.56,200.23,290.47,198.68,290.56Zm5.26,3.62a26.54,26.54,0,0,1,2,2.95c1.1,2,.09,4.17-2.4,5.31-2.86,1.3-5,.76-6-1.56a11,11,0,0,1,1.26-6.66C200.11,292.08,202.47,292,203.94,294.18Z"/><path class="cls-1" d="M119.71,338.33c-4.58-3.3-11.58-1.38-14.47,3.7a25.09,25.09,0,0,0-.55,5.41c.6,6,3.76,9.16,9.71,9.07,4.17-.05,8.24-3.53,9.11-8.61C124.15,343.77,122.92,340.57,119.71,338.33Zm-.55,13.14a7,7,0,0,1-7.32,1.92c-2.75-.87-4.72-6.27-2.84-8.7a7.1,7.1,0,0,0,.45-.92c1.52-1.55,2.61-3.66,4.08-4,3.94-.92,6.09-.32,7.33,4.4C121.59,346.89,121.36,349.41,119.16,351.47Z"/><path class="cls-1" d="M387.78,581.41c-1.1-1.23-3.52-2.61-4.7-2.18-2.8.95-4.95,2.82-7.56,4.43a3,3,0,0,0-.47.55c-1.56,3.56-1.94,9.5,2.95,12.21s9.59,2.56,11.82-3a35,35,0,0,0,.81-3.6c-.05-.38-.38-.67-.34-.86C391,585.92,389.58,583.41,387.78,581.41Zm-2.19,11.21a4.18,4.18,0,0,1-4.13,2.09c-4.32-1.48-5.27-2.85-4.46-6.32a3.33,3.33,0,0,1,1.57-2.09,39.59,39.59,0,0,1,6.07-2.47c.38-.14,1.57.57,1.57.9C386.26,587.35,387.25,590,385.59,592.62Z"/><path class="cls-1" d="M358.85,175.77c4.64,4.27,10.41,4.49,15.82,1.14,4.64-2.85,5.92-7.49,7.2-12.26,1.86-6.49-2.28-12.33-9.05-12.05-3.7.22-7.34,1.64-10.9,2.78-7,2.21-10,8.55-7.27,15.47A61.37,61.37,0,0,0,358.85,175.77Zm-.14-11c.71-2.35.71-5,3.78-5.92,3.35-1.06,6.63-2.35,10.12-.64,2.85,4.21,3.42,8.41,1.78,12.62-1.64,4.06-6.56,5.77-10.76,4C358.92,172.91,357.28,169.42,358.71,164.79Z"/><path class="cls-1" d="M407.53,114c8.55.29,14.11-6.12,16-12.68s-.49-10.76-7.12-12.05c-5.35-1-11-.21-16.47-.14-.35,0-.78.5-1.06.86-4.42,4.84-6.06,14.11-.72,19.6A12.8,12.8,0,0,0,407.53,114Zm1.35-22.09c6-.36,9.77,1.71,10.41,5.77.78,5.06-3.42,10.34-7.91,12-5.56,2.07-10.62-1.57-10.62-7.41C402.11,95,404.47,92.17,408.88,91.88Z"/><path class="cls-1" d="M640.34,189.26c5.77,1.78,11.12.49,16.18-3a45.75,45.75,0,0,0,2.14-5.77c1.78-6.27-1.29-11.62-7.63-12.47-3.63-.43-7.48.57-11.19.57-4.7-.07-6.34,2.78-7.34,6.7C631.15,180.85,634.78,187.62,640.34,189.26Zm-4.06-11.34c1.07-5,3.06-6.84,7.05-6.41a3.77,3.77,0,0,1,1.22.36l-.79.78-3.49,3.49a27.56,27.56,0,0,0,.07,4.92,9,9,0,0,0,1.64,2.56c.86-.57,2.07-1,2.42-1.78a21.78,21.78,0,0,0,1.57-5.77c.22-1.64-.28-4.06,2.07-3.71,1.78.29,4.35,1.86,4.92,3.42,1.64,4.85,1.56,7.92-5.06,9.84-1.07.29-2.14.57-3.21.78A7.2,7.2,0,0,1,636.28,177.92Z"/><path class="cls-1" d="M612.11,208.6c-2.06,1.28-3.2,6.7-2.28,10.05a8.81,8.81,0,0,0,7.63,6.06,19.38,19.38,0,0,0,5.7-.07c3.42-.72,7.63-1.22,8.62-5.28.65-2.85-.28-6.13-.71-9.41C622.52,203.9,619.88,203.68,612.11,208.6Zm9,11.76c-1.56,0-4.27-1.21-4.49-2.28a18.08,18.08,0,0,1,.29-8.27c.14-.64,3.71-.35,5.7-.43.5,0,.93.5,1.43.72C627.15,214.59,625.3,220.36,621.16,220.36Z"/><path class="cls-1" d="M440.24,139.7c2.71-.35,2.36-2.63,3.14-4.49.43-1.14,1-2.14.78-3.06a8.34,8.34,0,0,0-1.64-3.85c-1.35-1.71-2.78-.57-3.56.71-1.28,2.07-2.71,4.21-3.14,6.42C435,139.35,436.25,140.2,440.24,139.7Zm-.35-3.2c0,.07-.29.07-.43.14-.07-.5-.14-1.07-.21-1.57C439.74,135.28,439.82,135.93,439.89,136.5Z"/><path class="cls-1" d="M405.25,179.54c2.85-.64,6.63-8.41,4-11.33-.93-1-3-1.35-4.49-1.35a3.92,3.92,0,0,0-2.42,2.35,46.69,46.69,0,0,0-.86,6.84C400.69,179.9,403,180,405.25,179.54Zm.78-9.9c.43,1.64.79,3.2,1.14,4.77.08.22.15.57,0,.71a26.38,26.38,0,0,1-1.85,2.21c-.07-.78-.14-1.56-.28-2.35C405.39,172.7,405.75,171.2,406,169.64Z"/><path class="cls-1" d="M366.05,268.84c-.21-2.85-.5-5.55-.93-8.26-.07-.64-.49-1.78-.78-1.78-.85,0-2.35.35-2.42.71-.29,1.85-.86,4.06-.15,5.63S364.41,267.78,366.05,268.84Z"/><path class="cls-1" d="M443.24,584.5a4.21,4.21,0,0,0-2.5.86c-.5.57-.43,1.63-.78,2.49a19.36,19.36,0,0,1-1.21,2.28c-.5-.78-1.43-1.42-1.57-2.28a36.68,36.68,0,0,1-.71-7.48c.07-2.5-.79-3.5-3.64-3.07-1.14,1-2.85,2.21-2.71,3.14.57,3,1.21,6.2,2.92,8.69a15.73,15.73,0,0,0,6.7,5c.65.22,2.93-2.92,4.07-4.77.57-.93.42-2.43.42-3.71C444.16,585.21,443.52,584.43,443.24,584.5Z"/><path class="cls-1" d="M389,507.53a2.88,2.88,0,0,0-1.71,1.28,6.34,6.34,0,0,0,.21,2.78q.86,4.38,1.93,8.77a2.4,2.4,0,0,0,1.28,1.49c.36.15,1.14-.42,1.5-.85a6.28,6.28,0,0,0,.71-2.14c.5-4.06-1.07-7.2-2.78-10.26C389.93,508.1,389.21,507.39,389,507.53Z"/><path class="cls-1" d="M371.81,306.9c-.91-2-.85-4-1.42-5.84a38.27,38.27,0,0,0-2.21-6.85c-1.21-2.49-2.21-2.28-3.49.22-2.64,5.2-1.43,10.62-.93,16a12.82,12.82,0,0,0,1.78,5.56,4.88,4.88,0,0,0,3.35,2.14c1.14.07,3.14-.78,3.42-1.64A11.84,11.84,0,0,0,371.81,306.9Zm-3.27,8.41c-.29-1-.72-2.07-.93-3.06a29,29,0,0,1-.71-4.28c0-.36.57-.71.85-1.07.15.36.36.71.5,1.07,1,1.71,1.93,3.06,2.07,4.42C370.32,313.31,369.18,314.38,368.54,315.31Z"/><path class="cls-1" d="M549.36,489.78a20,20,0,0,0-2.35,6.77c-.22,1.14.28,3.35,1,3.57a3.47,3.47,0,0,0,4.92-2.71,86.68,86.68,0,0,0,.93-11.33C552.21,487.29,550.28,488.21,549.36,489.78Z"/><path class="cls-1" d="M358.39,575.24a7.72,7.72,0,0,0-.38,1.61,15.33,15.33,0,0,1-.1,2.09,5,5,0,0,1-1,1.52,10.78,10.78,0,0,1-.76-1.52c-.76-2.51,1-4.27,2-6.46a3.18,3.18,0,0,0-.38-1c-1.19.9-2.94,1.57-3.42,2.75-.57,1.52.05,3.47-.14,5.23-.33,2.66.1,4,3.23,3,1.14-.33,2.09-.24,2.09-1.76,0-1.28.43-2.61.33-3.84C359.76,576.24,358.86,575.76,358.39,575.24Z"/><path class="cls-1" d="M377.66,620.35c-.38.61-.76,1.23-1.18,1.8s-.76,1-1.05,1c-.47-.1-1.14-.67-1.14-1a23.54,23.54,0,0,1,.67-4.27,9.2,9.2,0,0,0,.09-1.52c.05-.57.19-1.14.24-1.66-.48.14-1.14.19-1.42.52-1.52,1.85-2.62,4-2.05,6.41.29,1.23,1.1,2.9,2.05,3.28a6.48,6.48,0,0,0,4.36-.53c.48-.19.53-1.9.53-2.89C378.76,621.06,378,620.68,377.66,620.35Z"/><path class="cls-1" d="M216.45,326.45c1.1.89,3.5.25,3.84-.93.54-1.89-1.81-6.65-3.67-7.11-.34-.13-1.09.37-1.35.8a5.18,5.18,0,0,0-.12,5.56A9.81,9.81,0,0,0,216.45,326.45Zm.3-6c.17.38.38.8.59,1.18,0,0,0,.13,0,.21.08,1.05.12,2.15.21,3.2-.47-.84-.89-1.73-1.31-2.57a3.86,3.86,0,0,1-.17-.55A8.41,8.41,0,0,0,216.75,320.47Z"/><path class="cls-1" d="M473.46,177.19c.71,2,1.63,2.35,3.27.93,2.71-2.28,4.07-5,2.43-8.48C473.1,169.92,471.82,172.34,473.46,177.19Z"/><path class="cls-1" d="M332,206.7c4.28-3.64,3.64-10.48-1.78-13.54-5.63,2.2-6.7,8.62-2.71,13.32C329.06,208.34,330.27,208.12,332,206.7Zm-2.78-9.34c.08-.21.65-.21,1-.36.22,1.22.5,2.43.71,3.64a8.41,8.41,0,0,1,0,1.42c-.07,1.22-.14,1.79-.21,2.36-.57-.29-1.35-.36-1.71-.86a3.29,3.29,0,0,1-.71-2.07A27.14,27.14,0,0,1,329.2,197.36Z"/><path class="cls-1" d="M200.15,299.66c0,.34.93.67,1.39,1,.21-.42.59-.76.63-1.18a6.12,6.12,0,0,0,0-2.49c-.17-.54-.93-.92-1.52-1.3A19.36,19.36,0,0,0,200.15,299.66Z"/><path class="cls-1" d="M113.3,342.26a60.21,60.21,0,0,0-1.74,6.78c-.27,2,.64,3.3,3.07,2.84,1-1.24,2.7-2.38,2.7-3.53,0-2.56-1.37-4.85-3.07-6.87C114.22,341.48,113.39,341.9,113.3,342.26Zm1.42,4a1.41,1.41,0,0,1,0,.46c-.32,1.51-.64,2.61-1,3.66,0,0-.46,0-.46-.09,0-1.1,0-2.19.09-3.29,0-.32.32-.65.41-1,.23-.59.42-1.23.6-1.83C114.49,344.92,114.63,345.61,114.72,346.29Z"/><path class="cls-1" d="M379.33,589a23.21,23.21,0,0,0,.71,2.75c0,.14.52.19.8.24.29-1.14.62-2.23.86-3.42.05-.28-.19-.66-.24-1A9.14,9.14,0,0,0,379.33,589Z"/><path class="cls-1" d="M365,171.92c.71.28,1.28.42,1.78.57v-.93c-.28-2.21-.57-4.42-.78-6.7-.14-.78-.07-1.57-.14-2.35-1,.36-2.35.5-2.92,1.28C360.56,166.57,361.42,169.71,365,171.92Z"/><path class="cls-1" d="M412.09,100.86A23.86,23.86,0,0,0,409,95.52c-.15-.29-.93-.36-1.22-.15-2.7,1.71-3.56,7.77-1.28,10.84C411.59,106.78,413.52,104.92,412.09,100.86Z"/><path class="cls-1" d="M619.45,211.24a9.08,9.08,0,0,0-.28,1.92,13.84,13.84,0,0,0,.5,3.21,8.64,8.64,0,0,0,1.64.85,21.38,21.38,0,0,0-.15-4.34C621,212.24,620.1,211.74,619.45,211.24Z"/><path class="cls-1" d="M384,471.68l4.94.38,2.49.2a14.91,14.91,0,0,0-.2-3.79c-.43-2.07-.79-5.28-4.49-5.35-4.13-.07-6.19,2.79-5.37,8.36Z"/><path class="cls-1" d="M387.37,471.94v0l4.08.32v0Z"/><polygon class="cls-1" points="385.12 471.77 381.37 471.48 381.37 471.5 385.12 471.79 385.12 471.77"/><path class="cls-1" d="M391.37,473.18a31.48,31.48,0,0,1-.77,4.16c-.29,1.21-2.28,2.28-3.78,2.92-2,.86-3.21-.71-3.78-2.42a58.35,58.35,0,0,1-1.57-5.7c0-.22-.09-.61-.1-.65l-3.95-.3c0,.45,0,.91-.05,1.37,0,.74,0,1.48,0,2.21,0,5.49,5.06,12.05,12.9,9.12,4.49-1.73,7.71-5.37,8.22-9.34a8.14,8.14,0,0,0,.08-1.71l-7.09-.56C391.44,472.4,391.4,472.91,391.37,473.18Z"/><path class="cls-1" d="M580,298.48s14.47-6.48,21.91-9.43,13.56.45,19.1,4c4.8,3.05,6.11,8.62,6.31,12.47,1.29-5.38,1.57-10.91-.7-15.05a52.2,52.2,0,0,1-2.67-5.75,5.59,5.59,0,0,1-.21,2.87C621.29,282.19,608,275.4,608,275.4c9.66,1.51,13.63,4.48,15.17,7.1-3.23-9.14-4.22-18.19-7.22-24-5.74-11.09-21.06-23-48.2-12.54h0c-.26-.84-.52-1.66-.74-2.5-1.78-7.27-5.42-14-5.91-21.81-.5-6.62-3.35-12.75-6.35-18.67-1.71-3.49-4-6.77-4.84-10.48-1.5-6.41-3.57-12.54-7.27-18-4.07-6.06-13.9-7.62-18.46-2.21-3.64,4.35-9,8.84-5.06,15.9.14.28,0,.71,0,1.07.78,8.19,4.27,15.11,9.33,21.45a69.93,69.93,0,0,1,8.41,12.54c5.14,10.34,5.78,21.88,7,33l.15,1.34h0c-27.59,16.45-41.44,35.79-60.43,41.07-28.94,8.05-54.38,24.41-92,29.92-4.79.71-9.41,1.29-13.94,1.8.06-.1,3.81-6.67,3.43-11.15.49-2.55.85-5,1.21-7.39,1.16-7.92.79-15.71-3.28-22.62-2-3.42-4.37-6.71-9-6.51-2.36.06-3.75-1.31-6.24-1.62a3.48,3.48,0,0,0-1.71.68,53.53,53.53,0,0,0-3.59,6.44c-4.61,9.54-4.92,19.6-1.88,29.74,1.29,4.37,3.4,8.48,4.16,13,.06.38.16,1.14.16,1.14l6.54-.66c0-.18-.33-1.91-.52-2.79a48.48,48.48,0,0,0-2.69-8.45c-3.82-9.13-5.22-18.93-1.52-28.74.92-2.55,1.77-5.3,5.11-5.3s4.86,2.69,5.65,5.24a87.76,87.76,0,0,1,3.64,16.78c.49,5.57-.24,8.35-.55,14.05-.06.34-.18,3.36-2.12,1.34-.06-.06-1.16,3.88-1.4,4.48s-.33,1-.46,1.49-.23,1-.31,1.42l5.34-.54c-.24.31-.48.62-.74.92-2.49,2.82-2,6.92.79,12.89,2.49,5.3,5.16,10.87,5.95,16.65.67,4.7-1.21,9.93-2.12,14.9A9.25,9.25,0,0,1,380,379c-2.69,2.63-.95,3.43.09,5.84,2.36,5.51,3.49,10.15,5.68,15.72,1.27,3.22.77,6.92-.19,10.23a10,10,0,0,1-1.38,2.9c3.76-.36,9.57-.15,5.88.68-4.65,1-12.74,3.15-17.19,5.92-5.14,3.21-10.76,7.62-18.3,17.7-10.94,14.59-11.39,18.8-7.27,17.18,11.06-4.34,32.08,2.81,43.77-6.49s6.43-13.37,13.29-16.47c3-1.36,7.18-2.69,9.94-5.68,6.82-7.39,13.75-8.82,13.75-8.82s0,1.28-3.36,4.87c-1.75,1.87-4.84,7.82-9.12,10.24a45.33,45.33,0,0,0-7.64,6.09c-3.06,3.12-2.2,2.45-6.74,8.9-4.38,6.24-3.2,9.5-30.4,12.36s-28.15,0-28.15,0-8.59-2.86,0-13.6,10.2-13.91,13.83-18.37a60.86,60.86,0,0,1,6.86-7.16h0c-.1-5.17.07-10.27-.05-15.38a8.79,8.79,0,0,0-3.78-7.29c-.15-.12-1.87-1.82-2-1.94-2.83-4-6-6.81-8-11.51-2.91-6.92-.3-13.56,3.22-19.67a64.08,64.08,0,0,0,6.87-20c.48-2.82.79-5.7,1.21-8.52a18,18,0,0,0,.06-4.68c-24.52,2.27-48.46,4.09-82.85,13.46-18.61,5.07-37.11,3.78-52.83.29-24.31-7.61-44.27-24.22-44.27-24.22-3.35-4.88-7.1-10-7.1-10s-2.59-4.48-3.82-6.81a26.31,26.31,0,0,1,1.73-2.15,29.89,29.89,0,0,1,4.27-3.95l.25-.19c2.36-1.79,4.94-3.42,8.59-6.65,4.2-3.71,9.1-8.06,12.07-11.81h0v0a13.56,13.56,0,0,0,2.5-4.29c1.9-3.34,4.2-7.58,4.32-8.72s1.68-6.55,2.34-12a10.4,10.4,0,0,0,.73-4.92l-.45.31c-.05-3.1-.71-5.67-2.57-6.61,0,0,.14-2.81-4.52-2.91a5.85,5.85,0,0,0-2.18.13h0a35.69,35.69,0,0,0-7,1.72l-1.18.37c-6.58,1.62-14.54,3.19-21.52,2.51h0s-10.61-3.25-19.15,1.52a21.61,21.61,0,0,1-5.93,2.5,22.71,22.71,0,0,1-2.69.13c-2.44-.28-4.66-1.63-8.73-3-7.73-2.64-20.54,1.8-20.54,1.8s-6.72,2.71-14.51,5.9h0c-13.58,5.19-24.06,5.66-27.88,5.63-1,0-1.56-.05-1.56-.05s-6.81-1.86-7.47,2.32S61.69,271,61.69,271s11.4,12.74,14.06,16.44,20.86,13.16,30,14.86a54.16,54.16,0,0,0,8.8.94h0a26.62,26.62,0,0,0,5.34-.33s11-1.23,16.52,3.26c2.48,5.87,5.32,16.67,7.18,24.21,0,0,15.27,48.46,45.23,68.47l6.24,3.62a34.66,34.66,0,0,1,4.38,2.58c12.5,7.39,25.86,15.64,31.66,20.43,12.31,10.15,42,23.2,42,23.2S293,458.9,309.83,465.2c8.68,3.25,15.83,4.59,20.35,4.62,5.82,0,27.31-.07,47.28,1.37.16-3.63-1.4-8.14,1-10.85,1-1.08,2.74-1,4.19-1.18a32.68,32.68,0,0,1,5.27-.24,6.16,6.16,0,0,1,2.69,1c3,3.39,5.29,5.82,7.14,9.81a8.5,8.5,0,0,1,.79,3.09c9.63.8,16.3,1.42,16.3,1.42s47.37,1.68,70.79-9.84c10.24-5,19.09-8.61,28.14-13.67,3.36,5.9,9.66,12.46,13.78,15.74a150.24,150.24,0,0,0,13.08,7.58c4.58,2.11,9.29,3.41,4.11-7.87-2.88-6.27-6.67-16.84-10.35-26.76a13.6,13.6,0,0,0,4.26-6.43c.94-4.53,18.28-20.64,25.48-36.23a52.23,52.23,0,0,1,3.18-5.84c-.16,1.92-.33,3.84-.49,5.76-.71,9.62-1.36,19.17-2.14,28.73-.64,8.19-.93,16.46-4.2,24.23-2.57,5.84-3.92,12.47-7.56,17.46-5.34,7.34-9.76,14.82-12.4,23.45-3.06,10.05-5.34,20.09-3,30.71.07.29-.5,1.07-.72,1.07-3.77-.35-5.41,2.35-7.19,4.85-4.21,5.7-7.56,11.69-8.49,19a29.45,29.45,0,0,1-8.9,17c-2.71,2.64-3.28,7-1.29,9.91,2.5,3.56,7.56,5.06,10.41,3.42,4.77-2.78,8.41-6.7,9.91-12.4,1.85-6.7,3.84-13.26,8.12-19.1a22.82,22.82,0,0,0,3.71-11.19c.35-3.85.21-6.77,4.13-9.55,5.63-4.07,7.06-11.12,8.84-17.54a86.13,86.13,0,0,1,11.61-25.51,77.09,77.09,0,0,0,7.84-14.54c1.3-3.2.5-5.84.65-8.77.28-6.27.85-12.47,1.42-18.67a26.81,26.81,0,0,1,.57-3.28c1-4.84,2.42-9.62,2.85-14.47.79-9,1.07-18,1.5-27.29.28-3.14.28-5.92.78-8.63A83.8,83.8,0,0,0,584.73,373l.15-.1,34.62-48.63a79.21,79.21,0,0,0,4.34-8.6c-.16.25-.27.4-.27.4s.44-2.12,1-7.95-6.29-9.76-13.54-14.26-36.13,12.83-47,20.56-33.85,3.93-33.85,3.93a179.57,179.57,0,0,1,23.74-6.46C565.66,309.65,580,298.48,580,298.48Zm-451.15,3.09c-8.4-.32-12.65.63-18.29-.54,10.41-1,19.08-2.76,23.37,1A32.87,32.87,0,0,0,128.85,301.57Zm41.68,14.5c-5.8-11.07-7.71-13.76-9.3-17.94-1.12-2.94-3.17-5.61-4-8.74,1.7,2.77,3.4,5.54,5.2,8.49,0,0,1,2.9,5.36,9.77-.1.68,5.4,8.16,9.5,13.64C179.33,324,175.07,324.73,170.53,316.07ZM534.68,544.59c-2.57,2.85-3.42,7.27-4.85,11-2.07,5.63-4.63,10.9-9,15.11-.78.78-2.14,1.06-3.28,1.56-.43-1.21-1.42-2.49-1.21-3.56.57-2.78,1.21-5.7,2.71-8,2.85-4.49,5.27-9.06,5.77-14.4.14-1.57.71-2.57,2.71-2.57,2.28,0,4.49-.64,4.77-3.56.08-.93-.14-1.85-.14-2.78a12.67,12.67,0,0,0-2.42,1.07,21.34,21.34,0,0,0-1.78,1.78,11.21,11.21,0,0,1,1.14-5.7,46,46,0,0,1,4.56-7.06c.64-.71,2.42-1.49,3.06-1.14a4.85,4.85,0,0,1,2.21,3.21C539.38,535,538.67,540,534.68,544.59Zm37.06-148.88c-.24-3.67,0-10.87,0-10.91l0,0,5.52-5.88h0l-.15,3c-.13,2.59-.24,5.18-.27,7.78-.14,7,.28,14.11-.14,21.09a112.64,112.64,0,0,1-2.43,15.33c-1.14,5.91-2.78,11.76-3.77,17.67-.5,2.85.14,5.85-.15,8.77-.78,6.27-.79,12.81-2.92,18.74a13.3,13.3,0,0,1-2.07,3.71c-5.56,7.41-8.26,16-11.47,24.52-2.64,6.91-6,13.61-9.27,20.31-.49,1.07-2.06,1.71-3.13,2.49a12.75,12.75,0,0,1-1-3.49,55.07,55.07,0,0,1,.71-7.55c2-11.91,4-23.88,10.62-34.36,1.29-2,2.64-3.92,3.92-5.84,3-6.77,5.56-13.19,8.2-19.6,3.21-7.63,3.21-15.82,4.42-23.8C570,417,572.38,406.47,571.74,395.71Zm-63.19-84.54a17.61,17.61,0,0,1,4.1-2.26c3-1.33,4,3.71,4.09,4.35s-2,3.31-1.42,4.54,0,0-3.74,2.15S508.55,311.17,508.55,311.17Zm-3,54.17c2.34,9.57,18.93,28.15,21.05,30.51l.23.25-.23-.25c-.66-.7-3.22-3.23-12.82-11.75-12.21-10.84-16.29-40.93-16.29-40.93S503.05,355.1,505.55,365.34Zm42.3,47.78-10.65,1.95c-10.65,2-27.56-14.26-27.56-14.26a63.76,63.76,0,0,0,15.67,9.08C534.92,413.82,547.85,413.12,547.85,413.12Zm4.29-168.58a2.51,2.51,0,0,0-1.64,1.64,34.68,34.68,0,0,0-.79,6.13c.08.27.15.53.22.79l.26,1c-.84.45-1.67.9-2.49,1.36v-.08c-.06-.42-.11-.83-.17-1.24a42.38,42.38,0,0,1-.51-7.62,45.18,45.18,0,0,0-3.14-19.67,52.9,52.9,0,0,0-11.12-17.47c-6-6.13-9.69-13.47-9.83-21.88-.07-5,2.92-10,7.12-13.25,2.14-1.64,4.42.28,5.42,2.63,2.49,6.06,4.78,12.26,7.13,18.39a27.52,27.52,0,0,0,1.78,4.28c8,13.11,12.47,27.87,18.32,41.91.6,1.48,1.15,3,1.68,4.5l.41,1.23,0,0q-3.84,1.59-7.39,3.27l.38-.19-.46-.74c-.87-1.4-1.77-2.78-2.71-4.11A2.94,2.94,0,0,0,552.14,244.54Z"/></svg>